<svg xmlns="http://www.w3.org/2000/svg" width="1400" height="1000" viewBox="0 0 1400 1000">
  <defs>
    <linearGradient id="bg" x1="0" y1="0" x2="0" y2="1">
      <stop offset="0%" stop-color="#1a4a2a"/>
      <stop offset="100%" stop-color="#04793e"/>
    </linearGradient>
  </defs>
  <rect width="1400" height="1000" fill="url(#bg)"/>
  <!-- large plant/leaf graphic -->
  <path d="M700 900 Q650 600 400 350 Q700 450 800 680 Q900 400 1100 280 Q1050 550 700 900Z" fill="#62bc54" opacity="0.45"/>
  <line x1="700" y1="900" x2="700" y2="550" stroke="#62bc54" stroke-width="10" opacity="0.55"/>
  <!-- product bags -->
  <rect x="120" y="650" width="190" height="260" rx="18" fill="#035a2e"/>
  <rect x="160" y="680" width="110" height="40" rx="6" fill="#e2e01b" opacity="0.5"/>
  <rect x="360" y="630" width="190" height="280" rx="18" fill="#035a2e"/>
  <rect x="400" y="660" width="110" height="40" rx="6" fill="#e2e01b" opacity="0.5"/>
  <rect x="1060" y="650" width="190" height="260" rx="18" fill="#035a2e"/>
  <rect x="1100" y="680" width="110" height="40" rx="6" fill="#e2e01b" opacity="0.5"/>
  <rect x="1250" y="630" width="190" height="280" rx="18" fill="#035a2e"/>
  <rect x="1290" y="660" width="110" height="40" rx="6" fill="#e2e01b" opacity="0.5"/>
  <!-- droplets / spray -->
  <circle cx="900" cy="300" r="12" fill="#e2e01b" opacity="0.5"/>
  <circle cx="950" cy="340" r="8" fill="#e2e01b" opacity="0.4"/>
  <circle cx="870" cy="360" r="10" fill="#e2e01b" opacity="0.45"/>
</svg>
